<?xml version="1.0" encoding="UTF-8"?>
<!DOCTYPE svg PUBLIC "-//W3C//DTD SVG 1.1//EN" "http://www.w3.org/Graphics/SVG/1.1/DTD/svg11.dtd">
<!-- Creator: CorelDRAW 2020 (64-Bit) -->
<svg xmlns="http://www.w3.org/2000/svg" xml:space="preserve" width="210mm" height="297mm" version="1.1" style="shape-rendering:geometricPrecision; text-rendering:geometricPrecision; image-rendering:optimizeQuality; fill-rule:evenodd; clip-rule:evenodd"
viewBox="0 0 21000 29700"
 xmlns:xlink="http://www.w3.org/1999/xlink"
 xmlns:xodm="http://www.corel.com/coreldraw/odm/2003">
 <defs>
  <style type="text/css">
   <![CDATA[
    .fil0 {fill:#E51A4B}
   ]]>
  </style>
 </defs>
 <g id="Layer_x0020_1">
  <metadata id="CorelCorpID_0Corel-Layer"/>
  <path class="fil0" d="M10675.61 10743.78c72.33,17.29 138.29,52.93 206.37,82.92 45.53,120.28 -109.71,190.14 -64.56,313.26 64.93,-23.65 72.68,-87.84 77.97,-147.81 151,55.74 1.76,303.39 -149.93,179.91 -96.3,21.52 -203.91,-69.49 -171.45,-170.03 56.1,-39.53 117.83,-71.62 167.21,-120.65 14.84,-54.33 -47.62,-91.02 -65.61,-137.59zm113.25 473.43c58.56,10.93 154.15,47.63 131.93,124.53 -81.84,52.21 -195.44,56.8 -244.83,151.7 -58.19,-134.07 -4.23,-239.54 112.89,-276.23zm-111.83 306.21c103.37,-5.64 20.11,178.86 75.14,243.77 239.19,-49.74 502.36,31.75 659.34,221.55 7.06,48.31 14.47,104.42 -17.28,146.4 -180.62,297.38 -565.15,406.05 -895,376.41 -176.03,14.81 -336.2,-63.5 -459.67,-179.56 -5.29,111.12 120.3,157.69 209.2,185.56 386.3,87.13 812.44,28.22 1129.94,-220.13 80.79,-43.4 192.27,-219.08 279.76,-95.96 11.65,183.79 9.87,366.19 -4.94,547.87 -156.98,303.72 -510.82,409.92 -826.56,445.55 -361.94,48.33 -821.27,48.33 -1070.33,-263.87 10.25,190.48 210.26,258.94 366.19,306.56 552.11,126.99 1202.97,53.27 1619.6,-364.42 43.4,-62.09 156.28,-67.03 198.26,-1.41 11.29,229.29 9.17,458.26 -5.65,687.21 -173.56,376.41 -583.49,584.91 -978.95,642.41 -421.57,67.02 -928.87,68.44 -1244.25,-267.76 -214.13,-186.63 -147.82,-496.71 -208.85,-744.01 -32.09,-84.67 -92.78,-2.11 -122.06,37.4 -132.64,264.57 -143.58,623 100.9,830.44 335.14,269.87 770.11,369 1193.44,359.83 473.08,50.79 927.11,-120.3 1368.43,-262.11 1456.27,-473.79 2899.13,-1109.49 4453.11,-1149.71 300.22,31.4 609.96,71.26 882.3,210.61 305.87,154.16 568.33,431.8 635.35,775.76 104.78,465.31 12,949.32 -165.45,1384.3 -171.45,494.24 -451.55,942.27 -765.17,1357.84 -154.87,207.07 -332.32,406.4 -562.33,530.23 -118.87,20.81 -354.55,43.04 -371.12,-130.88 61.03,-281.88 220.13,-533.4 277.28,-815.62 -293.85,289.27 -500.24,690.73 -883.36,886.17 -162.97,71.61 -343.25,126.65 -522.81,100.19 -65.97,-52.92 -80.08,-135.82 -115.71,-207.08 -173.56,159.45 -431.45,249.77 -658.29,166.86 -134.39,-97.38 -117.12,-275.87 -77.96,-416.63 -261.4,205.31 -509.41,467.08 -848.08,532.7 -82.89,-0.01 -150.99,-59.62 -207.08,-114.3 -40.91,-122.42 24.34,-231.07 31.05,-348.9 -247.3,208.48 -511.89,522.46 -872.07,451.2 -161.56,-25.41 -271.64,-183.79 -264.23,-343.25 -234.23,106.54 -433.92,312.56 -698.5,355.25 -65.96,2.45 -121.71,-41.98 -173.22,-76.91 -65.95,-410.64 220.49,-754.94 353.49,-1120.42 -159.45,98.77 -351.72,62.44 -527.41,38.1 -178.84,335.83 -308.32,699.56 -473.42,1043.16 -57.5,107.95 -209.91,29.28 -308.68,43.75 -32.09,-194.39 80.78,-360.19 142.87,-530.93 -280.81,271.28 -601.49,585.61 -1024.47,568.68 -153.44,35.97 -183.09,-155.23 -251.88,-247.65 -160.16,95.94 -293.86,260.35 -488.95,282.22 -194.01,-14.12 -327.02,-198.26 -311.85,-385.59 46.58,-224.02 148.16,-430.39 241.65,-637.82 42.34,-104.08 129.11,-199.67 105.13,-320.32 -123.12,16.57 -215.9,116.06 -283.28,213.43 -188.73,282.57 -291.05,608.19 -420.16,919.34 -27.15,91.35 -96.66,166.15 -185.56,198.96 -133,-15.17 -234.25,-108.3 -332.32,-190.85 -46.2,92.77 -124.18,171.1 -224.72,202.14 -147.46,-43.39 -230.72,-184.5 -281.87,-319.26 -26.8,-156.29 73.03,-281.52 107.95,-423.69 -148.52,150.62 -245.18,366.89 -403.58,517.53 -147.09,100.17 -319.61,267.05 -507.29,182.03 -143.22,-231.08 -30.34,-503.41 62.44,-732.01 267.77,-445.92 631.47,-830.09 1043.16,-1145.83 254.01,-186.27 558.8,-378.53 889,-330.9 118.89,81.83 14.82,276.58 7.41,383.12 -87.12,261.4 -248,554.91 -527.4,638.52 55.4,-121.72 119.24,-240.24 161.57,-367.94 49.4,-130.19 -29.63,-279.4 -162.98,-303.04 -425.44,116.77 -655.82,530.58 -892.18,869.24 -82.18,116.05 -150.28,248.36 -131.58,397.94 145.35,32.79 286.1,-52.57 354.89,-175.33 240.95,-284.36 426.51,-609.25 638.18,-914.4 44.81,-3.19 79.72,50.8 52.91,91.01 -105.11,368.99 -347.13,709.44 -303.03,1105.96 69.51,0.34 134.41,-27.16 199.32,-49.74 544.7,-310.1 890.05,-849.84 1322.56,-1285.52 112.19,-157.36 246.94,-302.33 419.45,-395.47 73.04,-8.11 168.98,79.73 118.54,153.11 -218.36,537.28 -697.45,1008.59 -575.38,1640.06 52.92,90.66 143.93,-5.64 201.08,-35.27 325.27,-347.86 401.81,-860.08 737.3,-1202.98 211.32,-219.08 436.39,-459.67 746.48,-527.4 123.48,-35.99 333.03,-69.5 382.06,89.25 72.33,273.4 -141.11,482.96 -282.57,685.8 -284.68,294.91 -663.23,529.88 -1083.38,543.98 13.76,167.91 -53.98,474.49 178.15,522.82 319.97,-58.56 550.68,-312.2 765.53,-537.28 317.5,-421.57 592.31,-874.18 868.53,-1323.62 93.85,-2.13 281.87,-6 375.71,-8.11 -141.81,223.3 -278.34,449.79 -423.68,670.27 -44.1,58.55 -62.09,161.93 7.76,207.79 120.31,32.1 245.88,8.11 336.9,-74.79 256.48,-228.26 405.7,-543.63 584.91,-830.79 137.24,-9.88 275.16,-11.64 413.81,-6 -162.27,329.49 -385.24,633.24 -556.34,961.32 -156.97,305.15 -376.76,597.96 -436.73,941.21 170.4,14.82 373.94,-68.08 425.45,-246.24 230.73,-537.63 517.52,-1081.26 988.13,-1446.38 137.23,-78.68 299.5,-106.19 456.49,-105.13 141.12,31.04 223.31,177.09 207.43,313.97 -74.43,372.88 -379.23,657.22 -676.27,873.12 -232.11,109.01 -213.78,-130.52 -197.91,-267.75 51.86,-146.76 146.4,-279.41 285.05,-354.54 -14.47,129.81 -172.16,201.78 -109.72,353.83 275.17,8.81 444.15,-349.6 274.11,-559.15 -43.74,-68.45 -147.81,-52.21 -202.85,-6.35 -250.81,187.32 -464.96,439.21 -565.85,739.42 -87.49,197.89 -85.02,462.84 112.89,595.14 159.45,38.8 319.61,-6.35 441.67,-111.48 601.86,-398.3 764.47,-1151.11 1217.08,-1674.64 59.63,-80.8 258.24,-128.76 238.13,25.4 -206.37,413.81 -466.37,802.93 -632.18,1237.19 -52.9,136.16 -119.59,273.05 -106.89,424.4 275.53,-43.05 476.61,-275.88 655.11,-473.43 243.08,-346.8 420.51,-740.83 710.14,-1054.81 70.92,-65.62 123.12,-168.27 257.18,-96.31 23.99,181.68 -143.23,305.86 -210.96,457.91 -193.32,400.39 -476.25,787.05 -530.93,1235.78 214.14,46.92 375.35,-127.35 525.63,-252.24 -16.91,145.33 -15.87,303.4 119.95,385.59 368.3,95.6 651.58,-226.48 803.98,-521.76 -201.78,-15.18 -430.04,98.43 -611.01,-27.51 -188.38,-277.29 -77.61,-668.52 138.99,-900.65 222.97,-215.9 539.75,-365.47 856.19,-340.07 140.07,21.5 175.69,167.57 209.2,282.92 1.42,142.17 -49.74,279.4 -69.5,419.46 76.91,-33.18 153.46,-92.08 242.72,-64.56 69.14,37.38 30.33,117.47 16.93,175.68 -98.78,382.4 -372.89,719.67 -362.66,1126.42 100.55,19.05 157.69,-74.79 230.72,-124.18 287.16,-334.43 502.71,-720.37 740.48,-1089.73 186.28,-428.64 297.39,-895.35 299.51,-1363.13 -5.28,-217.68 -107.95,-412.05 -223.66,-590.2 -333.01,-317.15 -819.86,-373.94 -1258.71,-331.96 -1208.26,53.25 -2390.43,336.55 -3552.48,653.7 -637.46,172.15 -1288.34,325.61 -1950.86,337.96 -499.17,-24.01 -1040.34,-131.59 -1405.82,-498.13 -193.67,-272.34 -184.15,-668.16 2.83,-939.09 59.27,-75.15 168.62,-146.4 247.29,-52.56 107.25,206.72 -17.99,498.47 167.22,679.45 258.94,255.76 647.35,268.81 988.84,248.7 393.36,5.29 839.61,-156.63 1055.15,-497.77 41.29,-111.84 -84.66,-17.28 -140.4,-31.39 4.59,-102.67 129.47,-227.19 31.04,-312.21 -63.84,-89.96 -173.56,-12.35 -238.12,34.92 -37.04,123.46 -3.18,244.83 75.85,338.32 76.21,77.24 -1.77,231.78 -106.19,215.55 -138.99,-100.9 100.89,-358.43 -53.27,-443.45 -37.38,-17.64 -76.2,-52.56 -119.59,-32.45 -195.43,56.78 -422.98,43.39 -571.5,204.26 5.29,126.29 136.88,286.45 -10.23,374.29 -179.56,-11.29 -64.56,-221.89 -48.69,-334.78 68.1,-132.65 -193.67,-233.54 -255.76,-107.95 -2.47,91 -5.64,181.68 -9.52,272.34 -46.91,2.81 -93.49,3.18 -139.35,0.71 -7.75,-95.96 44.8,-183.44 37.39,-279.05 -168.96,-115.72 -429.33,-123.47 -524.93,-325.97 -102.3,-165.45 -120.65,-422.27 22.58,-566.2 -49.73,206 78.67,430.74 286.45,472.36 510.13,120.65 1171.58,130.18 1548.34,-297.39 7.06,-163.34 12.7,-326.67 3.88,-489.65 -165.43,92.77 -156.98,304.09 -104.06,463.55 29.63,90.31 -83.61,88.55 -141.12,108.3 2.14,-71.27 35.99,-137.23 34.58,-208.14 -170.39,-165.11 -402.52,12.35 -589.85,35.63 -127.7,79.37 43.39,274.82 -9.88,381 -276.21,123.11 -161.92,-45.51 -127,-129.47 59.98,-90.68 -25.75,-189.79 -91.37,-249.76 -102.65,-8.48 -198.61,-53.28 -301.97,-39.87 -51.14,84.67 -55.39,186.62 5.29,268.11 55.05,59.96 -12,129.47 -79.73,119.6 -1.05,-88.57 -3.88,-265.65 -5.29,-354.19 -59.96,-92.08 -134.41,-172.51 -198.97,-260.71 -21.16,-80.43 -43.39,-198.61 49.39,-233.89 27.18,122.76 115.36,242.01 246.24,260.35 223.31,26.46 472.72,57.5 681.92,-50.45 167.94,-73.73 397.23,-191.2 317.5,-420.15 -89.95,-42.35 -175.68,-113.25 -279.05,-110.42 -10.57,149.21 80.08,334.43 -44.09,456.84 -166.15,62.08 -343.26,89.61 -515.06,31.4 -92.77,-76.92 -171.45,-184.85 -152.05,-311.85l28.94 8.81c15.52,221.18 289.62,231.43 458.6,195.44 128.42,-66.33 193.32,-232.83 182.03,-372.53 -78.3,-50.81 -163.33,-22.93 -244.82,0.35 29.28,71.25 155.22,29.99 180.62,101.96 -87.84,8.11 -187.33,-11.29 -229.66,-97.02 -122.06,-21.53 -239.89,66.68 -340.43,130.18 15.17,-155.23 231.42,-153.81 351.72,-185.21 0,-91.38 1.76,-182.74 4.94,-273.76zm1138.06 1562.45c-7.76,63.84 -44.1,128.77 -37.39,190.51 82.91,5.63 92.07,-165.81 37.39,-190.5zm-1597.02 2389.36c-259.64,124.88 -381.01,395.11 -594.44,572.56 -71.24,69.13 1.06,233.89 97.02,199.32 253.66,-75.86 512.23,-224.37 617.71,-477.66 50.82,-115.37 55.74,-340.79 -120.29,-294.22zm5759.45 81.48c-241.3,70.56 -440.98,345.38 -376.42,599.73 40.22,144.29 231.07,253.65 367.24,165.46 181.7,-43.75 218.72,-239.19 278.34,-390.88 49.76,-150.65 -75.84,-442.38 -269.17,-374.3zm-10264.41 -1583.98c163.69,-26.45 370.76,-13.04 475.89,135.12 57.51,221.19 -58.91,433.57 -212.02,583.85 -158.03,151.34 -414.16,191.91 -556.68,352.43 331.96,92.77 630.06,353.13 726.72,688.62 58.21,329.84 -35.63,674.16 -236.01,939.8 -311.84,505.88 -967.32,746.48 -1539.87,624.41 -147.46,-51.5 -290.34,-122.41 -408.87,-224.36 -140.75,-139.36 -156.28,-346.43 -120.65,-530.93 85.73,-154.53 226.83,-267.06 365.83,-371.83 266.36,-617.73 621.94,-1193.45 929.21,-1790.7 9.53,-176.76 -188.03,-54.68 -276.93,-27.16 -482.94,236.34 -933.09,563.38 -1272.47,983.19 -354.52,468.13 -501.29,1069.62 -418.39,1651.7 108.66,371.12 309.03,727.78 627.24,957.44 943.68,692.85 2238.37,798.34 3325.28,404.64 219.44,-87.85 459.67,-159.11 638.88,-321.03 85.03,-72.33 329.14,-103.36 197.21,124.18 -500.94,381.34 -1092.91,651.58 -1714.51,759.18 -678.73,135.81 -1370.18,-53.62 -1988.25,-331.97 -531.62,-257.19 -1026.58,-673.1 -1222.02,-1245.66 -131.23,-408.53 -116.77,-856.89 17.64,-1262.59 370.06,-1019.53 1332.08,-1715.55 2339.97,-2030.94 107.61,-23.99 213.43,-45.51 322.79,-67.38zm-319.95 272.68c-161.59,183.1 -318.58,415.24 -327.04,665.71 276.93,-4.59 602.54,-93.84 731.66,-364.07 83.97,-237.78 -229.31,-341.49 -404.64,-301.63zm-493.18 951.8c-92.41,224.01 -196.85,442.38 -291.04,665.69 -66.31,153.46 -291.04,133 -357.01,283.99 204.62,-94.56 409.57,-204.96 635.35,-254.35 -87.83,134.75 -176.39,269.17 -283.28,388.76 -91.01,66.31 -210.61,28.93 -305.15,83.25 -88.9,97.72 -146.06,239.89 -53.27,355.25 543.28,453.31 1451.32,70.56 1633.01,-574.32 50.45,-369.73 -142.17,-821.97 -534.46,-912.64 -136.87,-72.32 -298.45,-32.1 -444.15,-35.63zm3307.66 2569.27c71.26,-20.1 89.24,50.46 114.99,99.85 64.22,-38.81 122.77,-95.25 201.44,-101.96 -25.74,75.49 -76.56,135.12 -133.35,188.74 38.1,71.95 92.07,134.41 134.76,204.26 -93.13,17.99 -144.99,-58.91 -207.08,-110.42 9.17,85.37 -21.88,133 -111.48,108.66 0.36,-97.37 0.35,-292.1 0.7,-389.12zm502.02 10.92c140.76,-41.97 276.92,129.84 229.65,263.54 -71.25,68.43 -135.12,182.04 -264.94,107.6 -68.07,-72.69 -185.91,-135.11 -110.42,-267.41 41.28,-43.74 89.61,-80.43 145.7,-103.71zm-44.79 95.95c-156.65,209.55 195.42,276.23 177.08,105.48 21.89,-108.66 -101.6,-116.77 -177.1,-105.48zm605.73 -101.25c177.8,-50.1 0.35,309.39 63.49,383.12 -113.58,36.68 -111.83,-53.62 -109,-139.7 -112.17,-37.76 -107.25,55.04 -105.84,139 -212.37,66.31 -52.21,-258.24 -100.89,-351.72 86.78,-22.94 119.59,20.81 111.48,104.77 116.07,40.21 85.72,-77.25 140.75,-135.46zm322.45 -3.54c123.47,63.86 96.3,235.66 202.13,315.04 53.28,26.09 28.23,96.66 33.87,143.23 -55.03,3.51 -115.36,3.52 -119.59,-65.62 -140.4,-96.68 -192.26,57.15 -303.39,68.09 -21.16,-175.7 137.94,-300.57 186.97,-460.73zm-6.34 180.61c-16.93,43.75 -34.58,87.85 -42.69,134.77 27.88,-0.01 83.6,0 111.47,0 -20.8,-40.57 -12.34,-136.88 -68.79,-134.76zm313.64 -181.34c16.57,0 50.43,0.01 67.36,0.01 1.77,53.96 5.29,161.93 7.06,215.9 85.38,-52.92 130.88,-179.56 240.59,-184.5 -51.49,94.18 113.95,423.34 -101.24,354.54 121.01,-525.99 -346.08,359.84 -214.85,-173.92 0.36,-52.93 0.71,-159.1 1.06,-212.02zm387.37 -0.01c70.19,28.57 333.71,-70.19 317.48,98.08 -208.84,-43.75 -23.63,296.69 -208.84,291.75 -41.63,-87.85 75.49,-326.32 -106.54,-290.69 -0.69,-24.69 -1.76,-74.43 -2.12,-99.13zm503.77 9.87c108.31,-28.93 263.52,75.86 238.48,198.62 -95.6,-0.36 -190.86,1.42 -285.4,5.65 -9.51,158.04 160.51,75.14 249.41,65.62 33.18,128.75 -190.14,89.6 -239.53,103.01 -144.63,-93.5 -144.29,-325.26 37.04,-372.89zm349.97 -3.88c95.6,31.03 206.36,-29.28 283.62,55.39 121.71,65.95 71.26,284.69 -53.27,316.09 -96.65,62.07 -286.1,-159.11 -171.45,153.81 -95.95,10.21 -173.57,-126.65 -102.31,-213.79 44.82,-83.97 -55.03,-244.12 43.39,-311.5zm105.84 104.77c-122.06,91.36 8.11,262.82 130.17,165.11 124.89,-216.62 -38.45,-170.4 -130.17,-165.1zm461.09 -101.27c72.67,-33.16 140.39,31.06 199.66,65.63 -39.14,167.57 -402.87,-138.64 -239.54,198.62 45.52,82.54 140.06,15.17 208.5,8.47 14.46,178.13 -285.05,126.64 -309.04,-10.94 -85.72,-140.06 46.21,-214.84 140.41,-261.76zm309.4 -10.95c73.02,-20.82 90.3,53.28 116.4,103.38 55.05,-37.06 91.72,-108.66 166.87,-104.07 -7.05,73.37 -67.74,121.7 -98.08,184.85 28.94,75.14 92.43,134.76 132.65,205.67 -44.44,2.1 -88.2,-1.06 -130.88,-9.52 -27.52,-26.48 -28.93,-101.25 -76.91,-92.08 -31.73,42.68 -43.39,110.78 -110.07,104.78 0.02,-98.43 0,-294.93 0,-393zm466.03 8.46c77.27,-3.17 153.45,25.76 230.71,-1.4 96.67,87.13 49.39,265.99 0,373.24 -118.18,-9.53 -293.86,47.97 -335.14,-107.6 -81.83,-131.94 37.75,-191.56 104.42,-264.23zm-8.8 98.42c-110.08,136.88 83.24,289.28 152.03,152.05 88.55,-104.07 -53.27,-189.44 -152.05,-152.05zm468.15 -95.61c112.53,-54.67 255.4,57.16 167.56,201.09 49.39,144.63 14.82,203.2 -103.01,176.04 -3.53,-48.34 -6.35,-96.31 -8.47,-144.29 -53.26,70.19 -98.07,172.51 -204.96,147.47 31.05,-69.52 83.25,-140.41 41.27,-217.32 -42.67,-88.56 35.63,-136.52 107.6,-162.98zm420.88 -3.88c97.01,-45.52 52.2,85.37 68.78,138.99 72.68,-45.51 112.88,-148.52 208.13,-147.1 11.3,84.31 -89.95,109.36 -107.24,180.27 -16.58,93.47 121.36,115.35 107.6,210.25 -93.48,21.87 -145.35,-58.91 -207.44,-109.36 -9.15,51.49 10.59,140.41 -70.9,104.07 -44.45,-115.02 -87.14,-282.93 1.05,-377.12zm496.73 3.87c168.98,-32.45 316.43,271.3 132.28,344.67 -90.31,69.15 -204.26,20.47 -280.81,-43.74 -73.72,-147.46 31.04,-254 148.52,-300.92zm-38.45 99.47c-21.51,52.92 -70.56,126.31 -0.01,165.82 57.87,98.06 185.21,-15.88 169.34,-97.37 -2.82,-86.79 -108.66,-77.96 -169.34,-68.44zm390.18 -111.83c105.84,33.87 87.48,213.08 192.96,208.14 33.18,-78.68 65.27,-166.51 146.05,-208.49 24.01,129.81 71.97,257.53 76.91,391.23 -105.47,23.27 -88.9,-115 -117.47,-179.92 -84.66,32.8 -57.15,191.92 -156.29,173.57 -29.97,-61.04 -45.86,-133.7 -105.48,-173.57 -29.26,64.55 -12.7,202.5 -117.12,180.27 -1.76,-134.77 55.39,-260.7 80.44,-391.23zm486.13 3.17c99.48,-1.77 212.72,-5.28 315.73,1.07 -59.97,88.19 113.59,414.86 -69.15,386.29 -150.97,27.85 46.92,-279.05 -71.96,-282.93 -198.26,-48.69 58.21,365.13 -174.98,282.22 0,-96.67 0,-289.98 0.35,-386.64zm537.65 9.87c77.95,-2.12 156.62,7.06 235.64,27.52 0.37,87.14 0.71,261.41 1.06,348.55 -108.29,-41.28 -251.53,51.5 -327.38,-58.92 -125.57,-85.37 -38.8,-286.81 90.67,-317.14zm-2.47 100.18c-132.99,83.96 32.1,287.87 129.11,163.34 124.89,-214.49 -37.74,-168.63 -129.11,-163.33zm346.44 -110.79c99.83,-33.16 60.66,80.8 74.07,139.36 43.76,2.82 87.84,2.82 132.64,0.35 2.48,-47.28 5.65,-94.54 8.82,-141.46 196.86,-6.01 56.8,285.04 100.9,389.11 -113.59,36.68 -112.89,-52.56 -109.72,-139.34 -44.79,-3.19 -88.9,-3.18 -132.64,0 -13.39,58.54 25.75,172.15 -74.09,139.7 0.02,-97.03 0,-291.05 0,-387.71zm430.41 6.34c14.8,-2.46 44.43,-7.4 59.25,-9.51 1.77,54.67 5.64,164.04 7.41,219.07 68.79,-72.68 136.52,-147.11 203.9,-223.66 -63.14,83.95 119.95,426.16 -63.5,394.41 27.89,-419.11 -104.77,19.75 -249.06,4.23 0.72,-87.15 2.47,-261.41 3.18,-348.54 9.53,-9.18 28.93,-27.17 38.8,-35.99zm495.67 3.52c112.54,-54.67 255.04,57.16 167.56,201.09 49.04,144.63 14.81,203.2 -103.02,176.04 -3.52,-48.34 -6.35,-96.31 -8.46,-144.29 -53.26,70.19 -98.07,172.51 -204.97,147.47 30.71,-69.52 83.26,-140.41 41.28,-217.32 -42.68,-88.56 35.63,-136.52 107.61,-162.99z"/>
 </g>
</svg>
